<?xml version="1.0" encoding="iso-8859-1"?>
<!-- Generator: Adobe Illustrator 19.0.0, SVG Export Plug-In . SVG Version: 6.00 Build 0)  -->
<svg version="1.1" id="Capa_1" xmlns="http://www.w3.org/2000/svg" xmlns:xlink="http://www.w3.org/1999/xlink" x="0px" y="0px"
	 viewBox="0 0 512 512" style="enable-background:new 0 0 512 512;" xml:space="preserve">
<g>
	<g transform="translate(1 1)">
		<path style="fill:#A4C2F7;" d="M502.467,195.248v290.133c-0.028,9.414-7.653,17.039-17.067,17.067H24.6
			c-9.414-0.028-17.039-7.653-17.067-17.067V195.248l3.584-2.731l2.133,2.731H496.75l2.133-2.731L502.467,195.248z"/>
		<path style="fill:#D4E1F4;" d="M476.867,195.248v290.133c-0.028,9.414-7.653,17.039-17.067,17.067H24.6
			c-9.414-0.028-17.039-7.653-17.067-17.067V195.248H471.15l2.133-2.731L476.867,195.248z"/>
		<g>
			<path style="fill:#A4C2F7;" d="M498.883,192.517l-2.133,2.731l-233.216,179.2h-17.067l-233.216-179.2l-2.133-2.731l81.749-63.573
				l112.469-87.296l39.339-30.549c6.054-4.779,14.596-4.779,20.651,0l39.339,30.549l112.469,87.296L498.883,192.517z"/>
			<path style="fill:#A4C2F7;" d="M417.134,58.714v197.717l-25.6,19.712l-128,98.304h-17.067l-153.6-118.016V58.714
				c0.028-9.414,7.653-17.039,17.067-17.067h290.133C409.481,41.676,417.106,49.3,417.134,58.714z"/>
		</g>
		<path style="fill:#E3E7F2;" d="M391.534,58.714v217.429l-128,98.304h-17.067l-153.6-118.016V58.714
			c0.028-9.414,7.653-17.039,17.067-17.067h264.533C383.881,41.676,391.506,49.3,391.534,58.714z"/>
		<path style="fill:#A4C2F7;" d="M499.139,495.45c-3.185,4.409-8.299,7.013-13.739,6.997H24.6
			c-5.439,0.016-10.553-2.588-13.739-6.997L206.36,343.642l38.315-29.781c6.054-4.779,14.596-4.779,20.651,0l38.315,29.781
			L499.139,495.45z"/>
		<g>
			<path style="fill:#FFFFFF;" d="M10.862,495.45c0.137,0.188,0.333,0.333,0.469,0.521c0.538,0.679,1.126,1.318,1.758,1.911
				c0.375,0.342,0.768,0.664,1.178,0.964c0.544,0.427,1.114,0.82,1.707,1.178c0.461,0.265,0.913,0.529,1.391,0.751
				c0.699,0.323,1.42,0.594,2.159,0.811c0.435,0.137,0.853,0.307,1.297,0.41c1.239,0.291,2.507,0.443,3.78,0.452h25.6
				c-1.267-0.011-2.529-0.162-3.763-0.452c-0.452-0.102-0.853-0.273-1.297-0.41c-0.739-0.217-1.46-0.487-2.159-0.811
				c-0.478-0.222-0.93-0.486-1.391-0.751c-0.592-0.358-1.162-0.751-1.707-1.178c-0.41-0.3-0.803-0.622-1.178-0.964
				c-0.632-0.593-1.219-1.232-1.758-1.911c-0.137-0.188-0.333-0.333-0.469-0.521c-2.169-2.909-3.342-6.44-3.345-10.069V195.248
				l3.584-2.731l81.749-63.573V58.714c0.028-9.414,7.653-17.039,17.067-17.067h-25.6c-9.414,0.028-17.039,7.653-17.067,17.067
				v70.229l-81.749,63.573l-3.584,2.731v290.133c0.011,3.621,1.187,7.142,3.354,10.044L10.862,495.45z"/>
			<path style="fill:#FFFFFF;" d="M267.8,13.018l-2.475-1.92c-6.054-4.779-14.596-4.779-20.651,0l-39.339,30.549h25.6L267.8,13.018z
				"/>
		</g>
	</g>
	<g>
		<polygon style="fill:#FFFFFF;" points="0,486.381 0,375.448 0,196.248 17.067,196.248 17.067,375.448 17.067,486.381 		"/>
		<g>
			<path style="fill:#428DFF;" d="M5.291,425.965c0.484,0.246,1.001,0.419,1.536,0.512c0.564,0.095,1.135,0.152,1.707,0.171
				c2.259-0.033,4.422-0.917,6.059-2.475c0.771-0.816,1.38-1.772,1.792-2.816c1.287-3.183,0.586-6.825-1.792-9.301
				c-0.816-0.771-1.772-1.38-2.816-1.792c-1.026-0.437-2.128-0.669-3.243-0.683c-2.259,0.033-4.422,0.917-6.059,2.475
				c-3.3,3.365-3.3,8.752,0,12.117l1.28,1.024C4.231,425.52,4.747,425.779,5.291,425.965z"/>
			<path style="fill:#428DFF;" d="M511.548,194.003c-0.118-0.505-0.281-0.999-0.486-1.476c-0.244-0.452-0.529-0.881-0.853-1.28
				c-0.338-0.489-0.727-0.941-1.161-1.348c-0.137-0.119-0.196-0.282-0.341-0.393l-82.039-63.735V59.714
				c0-14.138-11.462-25.6-25.6-25.6h-92.476L271.565,5.366c-9.149-7.128-21.972-7.128-31.121,0L203.41,34.114h-92.476
				c-14.138,0-25.6,11.462-25.6,25.6v66.057L3.303,189.506c-2.051,1.629-3.222,4.123-3.166,6.741H0v187.733
				c0,4.713,3.821,8.533,8.533,8.533s8.533-3.821,8.533-8.533V209.244l139.836,108.587c3.725,2.889,9.088,2.211,11.977-1.515
				c2.889-3.725,2.211-9.088-1.515-11.977L25.302,194.021l60.032-46.643v65.937c0,4.713,3.821,8.533,8.533,8.533
				c4.713,0,8.533-3.821,8.533-8.533v-153.6c0-4.713,3.821-8.533,8.533-8.533h290.133c4.713,0,8.533,3.821,8.533,8.533v153.6
				c0,4.713,3.82,8.533,8.533,8.533s8.533-3.821,8.533-8.533v-65.937l60.032,46.643L344.38,304.536
				c-3.723,2.891-4.397,8.253-1.506,11.977c2.891,3.723,8.253,4.397,11.977,1.506l140.083-108.774v272.341L271.548,308.094
				c-9.143-7.118-21.952-7.118-31.095,0L17.067,481.585v-29.338c0-4.713-3.821-8.533-8.533-8.533S0,447.535,0,452.248v34.133
				c0.034,2.748,0.515,5.471,1.425,8.064c-1.959,2.954-1.867,6.816,0.229,9.674c2.096,2.858,5.752,4.106,9.158,3.126
				c4.315,3.083,9.485,4.739,14.788,4.736h460.8c5.322-0.011,10.506-1.691,14.822-4.804c0.728,0.224,1.483,0.347,2.244,0.367
				c3.117,0.018,5.991-1.68,7.479-4.419c1.488-2.739,1.349-6.074-0.362-8.679c0.907-2.593,1.385-5.317,1.417-8.064V196.248
				c0-0.179-0.094-0.333-0.102-0.503C511.845,195.153,511.728,194.569,511.548,194.003z M250.88,18.831
				c2.98-2.368,7.2-2.368,10.18,0l19.686,15.283h-49.493L250.88,18.831z M250.88,321.568c2.982-2.354,7.19-2.354,10.172,0
				l223.232,173.346H27.717L250.88,321.568z"/>
			<path style="fill:#428DFF;" d="M170.667,110.914h170.667c4.713,0,8.533-3.821,8.533-8.533c0-4.713-3.82-8.533-8.533-8.533
				H170.667c-4.713,0-8.533,3.821-8.533,8.533C162.134,107.094,165.954,110.914,170.667,110.914z"/>
			<path style="fill:#428DFF;" d="M170.667,162.114h170.667c4.713,0,8.533-3.821,8.533-8.533c0-4.713-3.82-8.533-8.533-8.533
				H170.667c-4.713,0-8.533,3.821-8.533,8.533C162.134,158.294,165.954,162.114,170.667,162.114z"/>
			<path style="fill:#428DFF;" d="M341.334,196.248h-76.8c-4.713,0-8.533,3.821-8.533,8.533c0,4.713,3.82,8.533,8.533,8.533h76.8
				c4.713,0,8.533-3.821,8.533-8.533C349.867,200.068,346.047,196.248,341.334,196.248z"/>
		</g>
	</g>
</g>
<g>
</g>
<g>
</g>
<g>
</g>
<g>
</g>
<g>
</g>
<g>
</g>
<g>
</g>
<g>
</g>
<g>
</g>
<g>
</g>
<g>
</g>
<g>
</g>
<g>
</g>
<g>
</g>
<g>
</g>
</svg>
